<svg xmlns="http://www.w3.org/2000/svg" width="120" height="120" viewBox="0 0 120 120" role="img">
  <title>Powered by Rust</title>
  <defs>
    <linearGradient id="b" x1="0%" y1="0%" x2="100%" y2="100%">
      <stop offset="0%" stop-color="rgba(209,91,86,0.8)"/>
      <stop offset="100%" stop-color="rgba(217,154,108,0.8)"/>
    </linearGradient>
    <filter id="a" x="-50%" y="-50%" width="200%" height="200%">
      <feGaussianBlur in="SourceAlpha" stdDeviation="1.5" result="blur"/>
      <feColorMatrix in="blur" result="glow"
        values="0 0 0 0 0.85  0 0 0 0 0.6  0 0 0 0 0.4  0 0 0 0.3 0"/>
      <feComposite in="SourceGraphic" in2="glow"/>
    </filter>
  </defs>

  <!-- center everything at (60,60) -->
  <g transform="translate(60,60)" fill="none" fill-rule="evenodd">
    <!-- outer circle -->
    <circle r="50" fill="#1E2228" stroke="rgba(84,91,105,0.3)" stroke-width="0.5"/>

    <!-- glow group -->
    <g filter="url(#a)">
      <!-- perfect diamond -->
      <polygon points="0,-20 20,0 0,20 -20,0"
               fill="rgba(209,91,86,0.8)"
               stroke="rgba(255,255,255,0.1)"
               stroke-width="0.5"/>

      <!-- crosshair lines -->
      <g stroke-linecap="round">
        <path d="M0,-40 V-32  M0,32 V40  M-40,0 H-32  M32,0 H40"
              stroke="rgba(217,154,108,0.8)"
              stroke-width="3"/>
        <!-- dashed inner circle -->
        <circle r="30"
                stroke="rgba(217,154,108,0.4)"
                stroke-dasharray="1,3"/>
      </g>
    </g>

    <!-- corner bars -->
    <g stroke-linecap="round">
      <path stroke="url(#b)" stroke-width="2"
            d="M-35,-20 h10  M-35,20 h10  M35,-20 h-10  M35,20 h-10"/>
      <path stroke="rgba(255,255,255,0.2)"
            d="M35,-30 l5,-2  M35,-10 l7,-2  M35,10 l7,2  M35,30 l5,2"/>
    </g>
  </g>
</svg>