<svg width="32" height="32" viewBox="0 0 32 32" fill="none" xmlns="http://www.w3.org/2000/svg">
  <!-- Option 1: Interlocking Ruby/Rust Symbols -->
  <!-- Ruby gem shape -->
  <path d="M16 3L7 8V20L16 25L25 20V8L16 3Z" fill="#D15B56" fill-opacity="0.9"/>
  <!-- Rust gear overlay --> 
  <path d="M16 8C11.5817 8 8 11.5817 8 16C8 20.4183 11.5817 24 16 24C20.4183 24 24 20.4183 24 16C24 11.5817 20.4183 8 16 8ZM16 12C18.2091 12 20 13.7909 20 16C20 18.2091 18.2091 20 16 20C13.7909 20 12 18.2091 12 16C12 13.7909 13.7909 12 16 12Z" fill="#D99A6C" fill-opacity="0.9"/>
  <!-- Rust gear teeth -->
  <path d="M16 4L16 7" stroke="#D99A6C" stroke-width="2" stroke-linecap="round"/>
  <path d="M16 25L16 28" stroke="#D99A6C" stroke-width="2" stroke-linecap="round"/>
  <path d="M7 16L4 16" stroke="#D99A6C" stroke-width="2" stroke-linecap="round"/>
  <path d="M28 16L25 16" stroke="#D99A6C" stroke-width="2" stroke-linecap="round"/>
  <path d="M9.5 9.5L7.5 7.5" stroke="#D99A6C" stroke-width="2" stroke-linecap="round"/>
  <path d="M24.5 24.5L22.5 22.5" stroke="#D99A6C" stroke-width="2" stroke-linecap="round"/>
  <path d="M9.5 22.5L7.5 24.5" stroke="#D99A6C" stroke-width="2" stroke-linecap="round"/>
  <path d="M24.5 7.5L22.5 9.5" stroke="#D99A6C" stroke-width="2" stroke-linecap="round"/>
</svg>