<?xml version="1.0" encoding="UTF-8" standalone="no"?>
<svg width="1200" height="630" viewBox="0 0 1200 630" fill="none" xmlns="http://www.w3.org/2000/svg">
  <!-- Background -->
  <rect width="1200" height="630" fill="#1A1D23"/>
  
  <!-- Subtle background pattern -->
  <rect width="1200" height="630" fill="url(#pattern)" fill-opacity="0.05"/>
  
  <!-- Logo position -->
  <g transform="translate(150, 215) scale(0.8)">
    <!-- Ruby gem shape -->
    <path d="M120 20L200 80V160L120 220L40 160V80L120 20Z" fill="#D15B56" fill-opacity="0.9"/>
    
    <!-- Rust gear shape overlay -->
    <path d="M195 120C195 161.421 161.421 195 120 195C78.5786 195 45 161.421 45 120C45 78.5786 78.5786 45 120 45C161.421 45 195 78.5786 195 120Z" fill="#D99A6C" fill-opacity="0.9"/>
    
    <!-- Center hole -->
    <circle cx="120" cy="120" r="40" fill="#1A1D23"/>
    
    <!-- Ruby "R" -->
    <path d="M110 100V140H100V100H110ZM100 110C100 105 103 100 110 100C120 100 120 110 110 110" stroke="#D15B56" stroke-width="5" stroke-linecap="round" stroke-linejoin="round"/>
    
    <!-- Rust "R" -->
    <path d="M140 100V140H130V100H140ZM130 110C130 105 133 100 140 100C150 100 150 110 140 110" stroke="#D99A6C" stroke-width="5" stroke-linecap="round" stroke-linejoin="round"/>
    
    <!-- Gears around the edge - simplified -->
    <path d="M120 30V45M170 50L160 60M190 100H175M170 150L160 140M120 175V190M70 150L80 140M50 100H65M70 50L80 60" stroke="#D99A6C" stroke-width="5" stroke-linecap="round"/>
  </g>
  
  <!-- Text -->
  <text x="400" y="270" font-family="'IBM Plex Sans', sans-serif" font-weight="700" font-size="80" fill="#E4E0DB">Ruby on Rust</text>
  <text x="400" y="340" font-family="'IBM Plex Serif', serif" font-weight="400" font-size="30" fill="#9CA3B0">Building Ruby extensions with Rust</text>
  
  <!-- Pattern definition -->
  <defs>
    <pattern id="pattern" x="0" y="0" width="20" height="20" patternUnits="userSpaceOnUse">
      <path d="M0 0L10 10M10 0L0 10" stroke="#FFFFFF" stroke-width="0.5"/>
    </pattern>
  </defs>
</svg>