<svg width="32" height="32" viewBox="0 0 32 32" fill="none" xmlns="http://www.w3.org/2000/svg">
  <!-- Ruby hexagonal gem base -->
  <path d="M16 3L6 8.5V19.5L16 25L26 19.5V8.5L16 3Z" fill="#D15B56" fill-opacity="0.85"/>
  
  <!-- Ruby top facet highlight -->
  <path d="M16 3L26 8.5L16 14L6 8.5L16 3Z" fill="#D15B56" fill-opacity="0.95"/>
  
  <!-- Gear outer ring -->
  <path fill-rule="evenodd" clip-rule="evenodd" d="M16 7C11.0294 7 7 11.0294 7 16C7 20.9706 11.0294 25 16 25C20.9706 25 25 20.9706 25 16C25 11.0294 20.9706 7 16 7ZM16 11C13.7909 11 12 13.7909 12 16C12 18.2091 13.7909 21 16 21C18.2091 21 20 18.2091 20 16C20 13.7909 18.2091 11 16 11Z" fill="#D99A6C" fill-opacity="0.9"/>
  
  <!-- Inner gear hole -->
  <circle cx="16" cy="16" r="5" fill="#1A1D23"/>
  <circle cx="16" cy="16" r="5" stroke="#D99A6C" stroke-opacity="0.9" stroke-width="0.5"/>
  
  <!-- Gear teeth - precisely positioned -->
  <!-- Top tooth -->
  <rect x="15" y="4" width="2" height="4" rx="0.5" fill="#D99A6C" fill-opacity="0.9"/>
  <!-- Bottom tooth -->
  <rect x="15" y="24" width="2" height="4" rx="0.5" fill="#D99A6C" fill-opacity="0.9"/>
  
  <!-- Left tooth -->
  <rect x="4" y="15" width="4" height="2" rx="0.5" fill="#D99A6C" fill-opacity="0.9"/>
  <!-- Right tooth -->
  <rect x="24" y="15" width="4" height="2" rx="0.5" fill="#D99A6C" fill-opacity="0.9"/>
  
  <!-- Diagonal teeth at perfect 45° angles -->
  <!-- Top-left tooth -->
  <rect transform="rotate(45 6.75 6.75)" x="6.75" y="6.75" width="4" height="2" rx="0.5" fill="#D99A6C" fill-opacity="0.9"/>
  <!-- Bottom-right tooth -->
  <rect transform="rotate(45 25.25 25.25)" x="25.25" y="25.25" width="4" height="2" rx="0.5" fill="#D99A6C" fill-opacity="0.9"/>
  
  <!-- Bottom-left tooth -->
  <rect transform="rotate(-45 6.75 25.25)" x="6.75" y="25.25" width="4" height="2" rx="0.5" fill="#D99A6C" fill-opacity="0.9"/>
  <!-- Top-right tooth -->
  <rect transform="rotate(-45 25.25 6.75)" x="25.25" y="6.75" width="4" height="2" rx="0.5" fill="#D99A6C" fill-opacity="0.9"/>
  
  <!-- Center ruby dot -->
  <circle cx="16" cy="16" r="2" fill="#D15B56" fill-opacity="0.95"/>
  
  <!-- Subtle gear ring highlight -->
  <path d="M16 7.5C11.3056 7.5 7.5 11.3056 7.5 16C7.5 20.6944 11.3056 24.5 16 24.5C20.6944 24.5 24.5 20.6944 24.5 16C24.5 11.3056 20.6944 7.5 16 7.5ZM16 8.5C20.1421 8.5 23.5 11.8579 23.5 16C23.5 20.1421 20.1421 23.5 16 23.5C11.8579 23.5 8.5 20.1421 8.5 16C8.5 11.8579 11.8579 8.5 16 8.5Z" fill="#D99A6C" fill-opacity="0.5"/>
</svg>